<svg xmlns="http://www.w3.org/2000/svg" viewBox="0 0 400 260" width="400" height="260">

  <g fill="none" stroke="#111111" stroke-width="2.2" stroke-linecap="round" stroke-linejoin="round">
    <path d="M 155 145 C 148 130, 138 122, 130 118 C 120 113, 108 114, 102 120 C 95 127, 96 138, 103 145 C 95 143, 88 146, 85 153 C 81 161, 85 171, 94 174 C 88 176, 84 183, 87 190 C 90 197, 100 200, 110 196 C 108 202, 111 210, 118 212 C 126 215, 135 210, 137 203 C 140 210, 148 215, 157 213 C 166 211, 171 203, 169 196 C 176 200, 185 198, 189 191 C 193 183, 189 174, 182 171 C 190 168, 195 160, 192 152 C 189 143, 180 139, 172 142 C 170 133, 163 126, 155 126 C 147 126, 140 133, 138 142 Z"/>
    <path d="M 192 142 C 196 138, 200 134, 204 132 C 212 128, 222 129, 226 136 C 230 143, 227 153, 220 157 C 214 160, 207 158, 203 153 C 199 148, 196 143, 192 142 Z"/>
    <circle cx="218" cy="141" r="2.5" fill="#111111" stroke="none"/>
    <path d="M 226 149 C 228 150, 228 152, 226 152"/>
    <path d="M 222 130 C 226 122, 234 120, 236 126 C 237 130, 232 134, 226 133"/>
    <path d="M 118 196 L 112 215 L 110 230"/>
    <path d="M 132 198 L 130 217 L 128 230"/>
    <path d="M 152 198 L 150 216 L 148 230"/>
    <path d="M 165 196 L 165 215 L 164 230"/>
    <path d="M 107 230 L 113 230"/>
    <path d="M 125 230 L 131 230"/>
    <path d="M 145 230 L 151 230"/>
    <path d="M 161 230 L 167 230"/>
    <path d="M 94 174 C 82 172, 76 163, 80 156 C 82 151, 87 150, 90 153"/>
  </g>

  <text x="200" y="25" text-anchor="middle" font-family="Georgia, 'Times New Roman', serif" font-size="22" font-weight="bold" letter-spacing="6" fill="#111111">MOUTON IN BLACK</text>
  <text x="200" y="46" text-anchor="middle" font-family="Georgia, 'Times New Roman', serif" font-size="9" letter-spacing="3" fill="#888888">UX DESIGN AGENCY</text>
  <line x1="140" y1="54" x2="260" y2="54" stroke="#cccccc" stroke-width="0.8"/>

</svg>
